<?xml version="1.0" encoding="UTF-8"?>
<svg id="Layer_1" xmlns="http://www.w3.org/2000/svg" version="1.1" viewBox="0 0 398.82 144.64">
  <!-- Generator: Adobe Illustrator 29.5.1, SVG Export Plug-In . SVG Version: 2.1.0 Build 141)  -->
  <defs>
    <style>
      .st0 {
        opacity: .3;
      }

      .st0, .st1 {
        fill: #d18a45;
      }

      .st0, .st1, .st2, .st3, .st4, .st5 {
        isolation: isolate;
      }

      .st0, .st1, .st4 {
        mix-blend-mode: multiply;
      }

      .st1, .st4, .st5 {
        opacity: .2;
      }

      .st2 {
        fill: #ffba76;
        opacity: .4;
      }

      .st4, .st6 {
        fill: #e8a96b;
      }

      .st5 {
        fill: #ffedb0;
      }
    </style>
  </defs>
  <g class="st3">
    <g id="Layer_11" data-name="Layer_1">
      <g>
        <polygon class="st6" points="396.68 29.43 396.68 40.6 375.17 83.03 365.91 101.37 343.99 144.64 58.8 144.64 37.21 102.04 27.95 83.87 6.03 40.6 6.03 29.43 27.95 0 374.83 0 375.17 .42 396.68 29.43"/>
        <polygon class="st4" points="382.64 58.76 372.99 77.1 350.12 120.36 52.67 120.36 30.15 77.76 20.5 59.59 6.03 32.21 6.03 40.6 27.95 83.87 37.21 102.04 58.8 144.64 343.99 144.64 365.91 101.37 375.17 83.03 396.68 40.6 396.68 32.21 382.64 58.76"/>
        <polygon class="st2" points="257.52 .04 145.24 .04 27.95 .04 6.06 29.46 396.7 29.46 374.82 .04 257.52 .04"/>
        <polygon class="st5" points="27.95 5.61 145.24 5.61 257.52 5.61 374.82 5.61 392.56 29.46 396.7 29.46 374.82 .04 257.52 .04 145.24 .04 27.95 .04 6.06 29.46 10.21 29.46 27.95 5.61"/>
        <g>
          <polygon class="st6" points="37.21 0 37.21 102.04 27.95 83.87 27.95 0 37.21 0"/>
          <rect class="st6" x="112.4" width="9.34" height="144.64"/>
          <rect class="st6" x="196.93" width="9.25" height="144.64"/>
          <rect class="st6" x="281.46" width="9.25" height="144.64"/>
          <polygon class="st6" points="375.17 0 375.17 83.03 365.91 101.37 365.91 0 375.17 0"/>
        </g>
        <rect class="st0" x="104.79" y=".04" width="7.61" height="139.64"/>
        <polygon class="st0" points="27.92 .04 20.34 10.22 20.34 68.84 27.95 83.87 27.95 .04 27.92 .04"/>
        <rect class="st0" x="189.32" y=".04" width="7.61" height="139.64"/>
        <rect class="st0" x="273.85" y=".04" width="7.61" height="139.64"/>
        <polygon class="st0" points="365.91 101.37 366 101.21 366 .04 358.38 .04 358.38 116.23 365.91 101.37"/>
        <polygon class="st1" points="8.32 45.11 394.39 45.11 396.68 40.6 6.03 40.6 8.32 45.11"/>
        <rect class="st6" x="3.92" y="29.46" width="394.9" height="11.14"/>
      </g>
      <polygon class="st6" points="14.29 139.68 3.92 139.68 27.39 32.21 37.77 32.21 14.29 139.68"/>
      <polygon class="st6" points="386.32 139.68 396.7 139.68 373.23 32.21 362.85 32.21 386.32 139.68"/>
      <rect class="st6" x="9.18" y="134.36" width="382.5" height="5.32"/>
    </g>
  </g>
</svg>