<?xml version="1.0" encoding="UTF-8"?>
<svg xmlns="http://www.w3.org/2000/svg" viewBox="0 0 886.13 416.93">
  <defs>
    <style>
      .cls-1 {
        fill: #3c5676;
      }

      .cls-2 {
        fill: #283b56;
      }

      .cls-3, .cls-4 {
        mix-blend-mode: multiply;
      }

      .cls-3, .cls-5 {
        fill: #e8a96b;
      }

      .cls-6 {
        fill: #728293;
      }

      .cls-7 {
        isolation: isolate;
      }

      .cls-8 {
        fill: #e09155;
      }

      .cls-4 {
        fill: #979aae;
      }

      .cls-9 {
        fill: #627b9e;
      }

      .cls-10 {
        opacity: .47;
      }

      .cls-11 {
        fill: #edc19a;
      }

      .cls-12 {
        fill: #506583;
      }

      .cls-13 {
        fill: #3e4d64;
      }
    </style>
  </defs>
  <g class="cls-7">
    <g id="Layer_1" data-name="Layer 1">
      <polygon class="cls-5" points="470.2 12.13 334.33 190.76 506.36 416.93 703.23 416.93 876.9 188.6 876.9 12.13 470.2 12.13"/>
      <polygon class="cls-11" points="726.06 386.92 788.24 386.92 788.24 364.23 838.92 297.6 838.92 238.54 726.06 386.92"/>
      <rect class="cls-5" x="363.74" y="150.42" width="513.17" height="7.68"/>
      <rect class="cls-3" x="507.11" y="88.15" width="133.64" height="5.84" transform="translate(482.86 665) rotate(-90)"/>
      <rect class="cls-3" x="663.8" y="88.15" width="133.64" height="5.84" transform="translate(639.55 821.69) rotate(-90)"/>
      <polygon class="cls-2" points="340.86 199.33 334.33 207.91 321.29 190.76 457.16 12.13 457.16 12.13 466.38 0 165.3 0 20.21 190.76 33.25 207.91 39.77 199.33 205.28 416.93 402.15 416.93 424.97 386.92 483.54 386.92 340.86 199.33"/>
      <polygon class="cls-8" points="165.3 0 145.09 0 0 190.76 13.04 207.91 33.51 208.25 20.21 190.76 165.3 0"/>
      <polygon class="cls-5" points="20.21 190.76 334.33 190.76 506.36 416.93 205.28 416.93 46.72 208.47 33.51 208.25 20.21 190.76"/>
      <polygon class="cls-11" points="334.33 207.91 321.29 190.76 466.38 0 886.13 0 886.13 24.25 474.02 24.25 334.33 207.91"/>
      <polygon class="cls-8" points="466.38 0 446.18 0 301.08 190.76 314.13 207.91 334.33 207.91 321.29 190.76 466.38 0"/>
      <polygon class="cls-3" points="861.51 157.89 372.77 169.36 348.66 200.28 508.04 413.85 703.77 416.72 205.82 416.72 47.26 208.25 13.58 207.69 .54 190.54 301.62 190.54 314.66 207.69 334.87 207.69 340.83 199.85 372.75 157.89 861.51 157.89"/>
      <polygon class="cls-4" points="474.02 24.25 565.29 29.35 565.29 155.23 435.63 157.89 571.01 157.89 571.01 24.25 474.02 24.25"/>
      <polygon class="cls-4" points="630.71 24.25 721.98 29.36 721.98 155.44 592.32 158.11 727.7 158.11 727.7 24.25 630.71 24.25"/>
      <polygon class="cls-3" points="838.92 273.48 822.55 273.48 737.56 386.92 726.06 386.92 838.92 238.54 838.92 273.48"/>
      <polygon class="cls-1" points="170.44 12.13 53.28 171.2 283.77 150.42 401.9 12.13 170.44 12.13"/>
      <polygon class="cls-9" points="175.73 23.06 111.38 112.62 219.42 95.09 259.52 27.14 335.87 23.06 175.73 23.06"/>
      <polygon class="cls-11" points="853.41 167 853.41 195.09 696.38 401.46 678.73 401.46 736 193.65 736 167 853.41 167"/>
      <g>
        <polygon class="cls-12" points="129.02 281.37 103.22 281.37 98.65 289.48 141.11 311.38 145.68 303.28 129.02 281.37"/>
        <polygon class="cls-13" points="124.45 289.48 98.65 289.48 115.31 311.38 141.11 311.38 124.45 289.48"/>
        <polygon class="cls-9" points="129.02 281.37 124.45 289.48 141.11 311.38 145.68 303.28 129.02 281.37"/>
      </g>
      <g>
        <polygon class="cls-12" points="347.08 281.37 321.28 281.37 316.71 289.48 359.17 311.38 363.74 303.28 347.08 281.37"/>
        <polygon class="cls-13" points="342.51 289.48 316.71 289.48 333.37 311.38 359.17 311.38 342.51 289.48"/>
        <polygon class="cls-9" points="347.08 281.37 342.51 289.48 359.17 311.38 363.74 303.28 347.08 281.37"/>
      </g>
      <g class="cls-10">
        <polygon class="cls-6" points="48.47 190.76 291.45 171.2 443 4.17 301.08 190.76 48.47 190.76"/>
      </g>
      <polygon class="cls-4" points="779.39 24.25 871.15 29.35 871.15 155.23 740.79 157.89 876.9 157.89 876.9 24.25 779.39 24.25"/>
    </g>
  </g>
</svg>